<svg width="121" height="22" viewBox="0 0 121 22" fill="none" xmlns="http://www.w3.org/2000/svg">
<g clip-path="url(#clip0_2_80)">
<path d="M33.8032 19.579C33.8032 19.7499 33.7113 19.833 33.5277 19.833H32.5702C32.5368 19.8345 32.5035 19.8289 32.4725 19.8165C32.4416 19.804 32.4138 19.7851 32.3911 19.7611C32.3471 19.7131 32.3142 19.6563 32.2947 19.5948L31.2407 15.9465H27.0389L25.9987 19.5993C25.9767 19.6634 25.938 19.7207 25.8862 19.7656C25.8385 19.8117 25.7742 19.8376 25.7071 19.8375H24.7497C24.566 19.8375 24.4741 19.7544 24.4741 19.5835C24.4724 19.5462 24.4778 19.5088 24.4902 19.4734L27.4912 9.13314C27.5443 8.91786 27.6411 8.71526 27.7759 8.53745C27.9983 8.25596 28.3143 8.05954 28.6691 7.98222C28.8256 7.94563 28.9858 7.92678 29.1467 7.92603C29.3048 7.92671 29.4624 7.94252 29.6174 7.97323C29.7838 8.00807 29.943 8.0704 30.0881 8.15756C30.2469 8.25387 30.3869 8.37719 30.5014 8.52171C30.6362 8.69953 30.7331 8.90212 30.7861 9.1174L33.7871 19.4734C33.7989 19.5074 33.8044 19.5432 33.8032 19.579ZM29.4544 9.46357C29.4016 9.27475 29.2982 9.1781 29.1467 9.1781C28.9952 9.1781 28.8758 9.27475 28.8229 9.46357L27.3466 14.6899H30.9308L29.4544 9.46357Z" fill="black"/>
<path d="M40.664 19.6577C40.5946 19.7252 40.5022 19.7652 40.4045 19.7701C40.0962 19.8283 39.7851 19.8711 39.4723 19.8982C39.1202 19.9297 38.7551 19.9454 38.3771 19.9454C37.8735 19.9539 37.3737 19.8589 36.9098 19.6667C36.493 19.489 36.1214 19.2234 35.8215 18.8889C35.5134 18.5337 35.2843 18.1195 35.1487 17.6728C34.9908 17.1582 34.9134 16.6231 34.9191 16.0858V14.8472C34.9133 14.3092 34.9908 13.7734 35.1487 13.258C35.283 12.8128 35.5097 12.3996 35.8146 12.0441C36.1107 11.7066 36.4824 11.4404 36.9007 11.2664C37.3676 11.0737 37.8705 10.9788 38.3771 10.9876C38.7567 10.9876 39.1218 11.0034 39.4723 11.0348C39.7852 11.0608 40.0964 11.1036 40.4045 11.163C40.5005 11.1675 40.592 11.204 40.664 11.2664C40.7154 11.3376 40.7391 11.4245 40.7306 11.5114V12.0823C40.7337 12.1174 40.7278 12.1527 40.7134 12.1849C40.6989 12.2171 40.6764 12.2452 40.6479 12.2667C40.5909 12.3039 40.5235 12.3228 40.455 12.3206H40.3884C40.0325 12.2802 39.6996 12.2487 39.4149 12.233C39.1302 12.2172 38.7766 12.2105 38.3771 12.2105C38.0931 12.1947 37.8094 12.2447 37.5489 12.3564C37.2884 12.4681 37.0584 12.6384 36.8777 12.8534C36.5264 13.2827 36.3496 13.9458 36.3496 14.8472V16.0858C36.3496 16.985 36.5218 17.6593 36.8685 18.0774C37.0499 18.2941 37.2813 18.4656 37.5435 18.5777C37.8057 18.6898 38.0914 18.7395 38.3771 18.7226C38.7766 18.7226 39.1233 18.7226 39.4149 18.6979C39.7065 18.6731 40.0325 18.6529 40.3884 18.6102H40.455C40.5239 18.6077 40.5916 18.6275 40.6479 18.6664C40.6762 18.6875 40.6987 18.7152 40.7131 18.747C40.7276 18.7789 40.7336 18.8138 40.7306 18.8485V19.4217C40.7369 19.5055 40.7133 19.5889 40.664 19.6577Z" fill="black"/>
<path d="M48.76 19.5161C48.7607 19.558 48.7525 19.5997 48.7359 19.6384C48.7193 19.6771 48.6947 19.712 48.6636 19.7409C48.6337 19.7709 48.598 19.7947 48.5586 19.8109C48.5191 19.8271 48.4768 19.8354 48.434 19.8353H47.6878C47.6022 19.8336 47.5206 19.7997 47.4599 19.7407C47.3992 19.6817 47.3641 19.6021 47.3617 19.5183V19.1677C46.9798 19.3877 46.5787 19.5743 46.1631 19.7251C45.747 19.8751 45.307 19.9512 44.8636 19.9499C44.5276 19.9506 44.1929 19.9106 43.867 19.8308C43.5561 19.7549 43.2671 19.6104 43.0221 19.4082C42.7674 19.1916 42.5678 18.9199 42.4389 18.6147C42.2779 18.2212 42.1998 17.7999 42.2093 17.3761V17.185C42.2009 16.8011 42.2695 16.4192 42.4113 16.0611C42.55 15.7347 42.781 15.454 43.0772 15.2519C43.4414 15.0104 43.8525 14.8451 44.2849 14.7663C44.8899 14.6512 45.5056 14.5985 46.1218 14.609H47.3227V13.9728C47.3227 13.3044 47.1933 12.8384 46.9346 12.5746C46.6759 12.3109 46.2267 12.179 45.5868 12.179C45.0572 12.179 44.5926 12.1917 44.1931 12.2172C43.7913 12.2442 43.4308 12.2734 43.1047 12.3049H43.0244C42.954 12.3063 42.8844 12.2901 42.8223 12.2577C42.7626 12.2262 42.7328 12.1565 42.7328 12.0509V11.4956C42.7328 11.3271 42.8453 11.2259 43.0726 11.1944C43.4078 11.1405 43.7729 11.0933 44.1678 11.0506C44.6393 11.0047 45.113 10.9837 45.5868 10.9876C46.7119 10.9876 47.5209 11.2521 48.0138 11.7811C48.5067 12.3101 48.7524 13.0407 48.7508 13.9728L48.76 19.5161ZM47.3319 15.6093H46.131C45.7243 15.6032 45.3178 15.6325 44.9164 15.6969C44.6462 15.7353 44.3868 15.827 44.1541 15.9667C43.9753 16.0806 43.8385 16.2476 43.7637 16.4432C43.6815 16.675 43.6426 16.9195 43.6489 17.1648V17.3559C43.6489 17.9268 43.779 18.3105 44.0393 18.5068C44.3636 18.7226 44.7523 18.8262 45.1437 18.8013C45.5119 18.8022 45.8781 18.7484 46.2297 18.6417C46.6131 18.521 46.9825 18.3613 47.3319 18.1651V15.6093Z" fill="black"/>
<path d="M57.5357 19.3183C57.5406 19.4041 57.5215 19.4895 57.4806 19.5655C57.4055 19.6405 57.3031 19.6833 57.1959 19.6847C56.7001 19.7782 56.1996 19.8465 55.6965 19.8892C55.2029 19.932 54.7092 19.9544 54.211 19.9544C53.6729 19.9661 53.1379 19.8713 52.6381 19.6757C52.2113 19.5032 51.8327 19.2335 51.5337 18.8889C51.229 18.5267 51.0081 18.1041 50.8862 17.6503C50.7392 17.1231 50.6681 16.5784 50.675 16.0319V14.8877C50.675 13.6379 50.9666 12.6765 51.5498 12.0037C52.133 11.3308 53.02 10.9951 54.211 10.9966C54.4589 10.9966 54.7597 11.0101 55.111 11.0348C55.4623 11.0596 55.7999 11.1023 56.1098 11.154V8.19127C56.1092 8.15159 56.1168 8.11219 56.1322 8.07548C56.1475 8.03876 56.1704 8.0055 56.1994 7.97772C56.2288 7.94758 56.2646 7.92412 56.3043 7.90898C56.3439 7.89383 56.3865 7.88737 56.429 7.89006H57.2556C57.2952 7.88849 57.3347 7.89554 57.3712 7.9107C57.4078 7.92586 57.4404 7.94875 57.4668 7.97772C57.5209 8.036 57.5497 8.11258 57.5472 8.19127L57.5357 19.3183ZM56.1098 12.3296C55.7937 12.2733 55.4736 12.2418 55.1524 12.2352C54.785 12.224 54.4635 12.2195 54.211 12.2195C53.867 12.2094 53.5245 12.269 53.2053 12.3948C52.9435 12.5032 52.7183 12.6816 52.5555 12.9096C52.3829 13.165 52.2642 13.4516 52.2065 13.7525C52.1336 14.1266 52.099 14.5069 52.1031 14.8877V16.0319C52.1031 16.8996 52.2524 17.5672 52.5624 18.0325C52.8723 18.4978 53.4165 18.7316 54.2178 18.7316C54.498 18.7316 54.8148 18.7203 55.1661 18.6979C55.5174 18.6754 55.8343 18.6574 56.1167 18.6349L56.1098 12.3296Z" fill="black"/>
<path d="M66.6054 15.5621C66.6054 15.7869 66.502 15.9105 66.2977 15.9105H60.8789V16.1353C60.8789 17.0779 61.0679 17.7448 61.446 18.1359C61.8241 18.527 62.3867 18.7233 63.1337 18.7248C63.6097 18.7248 64.1149 18.7091 64.6491 18.6776C65.1864 18.6439 65.6433 18.6035 66.0268 18.5495H66.1071C66.1701 18.5491 66.232 18.5655 66.2862 18.5967C66.3144 18.6162 66.3367 18.6428 66.3509 18.6736C66.365 18.7045 66.3704 18.7385 66.3666 18.7721V19.3183C66.3711 19.4052 66.3487 19.4914 66.3023 19.5656C66.234 19.6355 66.1414 19.678 66.0428 19.6847C65.5836 19.7679 65.1244 19.8353 64.6537 19.8825C64.1502 19.9322 63.6443 19.9562 63.1382 19.9544C62.6772 19.9542 62.2183 19.8922 61.7744 19.7701C61.3402 19.6527 60.9385 19.4415 60.5988 19.1519C60.2369 18.8291 59.9543 18.4302 59.7722 17.9853C59.5427 17.3975 59.435 16.7709 59.4553 16.142V14.7124C59.4553 13.5675 59.7614 12.6623 60.3737 11.9969C60.986 11.3316 61.8762 10.9981 63.0441 10.9966C63.5745 10.9862 64.102 11.0747 64.5986 11.2574C65.0212 11.4208 65.4004 11.6759 65.7076 12.0037C66.0136 12.3447 66.2421 12.7454 66.3781 13.1793C66.5357 13.6755 66.6131 14.1928 66.6077 14.7124L66.6054 15.5621ZM65.1772 14.7034C65.1772 13.8042 65.0027 13.1636 64.6491 12.7815C64.2955 12.3993 63.7651 12.2105 63.0533 12.2105C62.3415 12.2105 61.8111 12.4106 61.446 12.8129C61.0809 13.2153 60.8858 13.8469 60.8858 14.7034V14.8473H65.1841L65.1772 14.7034Z" fill="black"/>
<path d="M79.2109 19.7386C79.1811 19.7686 79.1454 19.7925 79.1059 19.8087C79.0665 19.8249 79.0241 19.8332 78.9813 19.8331H78.2029C78.1601 19.8337 78.1175 19.8257 78.078 19.8094C78.0385 19.7932 78.0029 19.7691 77.9733 19.7386C77.9416 19.7101 77.9164 19.6753 77.8994 19.6366C77.8824 19.5979 77.8739 19.556 77.8746 19.5139V13.8942C77.882 13.6143 77.844 13.3351 77.7621 13.0669C77.7018 12.8716 77.5965 12.6925 77.4544 12.5432C77.3227 12.4166 77.161 12.3239 76.9837 12.2734C76.7933 12.2204 76.5962 12.194 76.3982 12.1948C76.0833 12.1983 75.7701 12.2406 75.466 12.3206C75.1392 12.4048 74.8173 12.5061 74.5016 12.6241C74.6049 13.029 74.6535 13.4454 74.6463 13.8627V19.5161C74.6479 19.598 74.6194 19.6778 74.5659 19.7409C74.5404 19.7713 74.5081 19.7957 74.4715 19.812C74.4348 19.8284 74.3949 19.8364 74.3547 19.8353H73.4959C73.4566 19.8371 73.4174 19.8294 73.3818 19.813C73.3461 19.7965 73.3152 19.7718 73.2916 19.7409C73.2421 19.6761 73.2163 19.597 73.2181 19.5161V13.8627C73.2244 13.5778 73.2005 13.2931 73.1469 13.013C73.1135 12.8273 73.0348 12.6522 72.9173 12.5027C72.8129 12.384 72.6745 12.2987 72.5201 12.2577C72.3432 12.2129 72.1609 12.1917 71.9782 12.1948C71.6529 12.2006 71.3312 12.2623 71.0276 12.3768C70.676 12.5034 70.3318 12.649 69.9967 12.8129V19.5161C69.9996 19.5982 69.9709 19.6785 69.9163 19.7409C69.891 19.7716 69.8587 19.7961 69.8221 19.8125C69.7854 19.8289 69.7453 19.8367 69.7051 19.8353H68.8463C68.8072 19.8378 68.7681 19.8304 68.7327 19.8138C68.6974 19.7973 68.6669 19.7722 68.6443 19.7409C68.5938 19.6766 68.5678 19.5971 68.5708 19.5161V11.4237C68.5692 11.3402 68.6014 11.2594 68.6603 11.1989C68.6881 11.1663 68.7234 11.1405 68.7633 11.1237C68.8032 11.1069 68.8466 11.0995 68.8899 11.1023H69.6844C69.7277 11.1001 69.7709 11.1076 69.8107 11.1244C69.8505 11.1412 69.8859 11.1667 69.914 11.1989C69.9715 11.2601 70.0027 11.3406 70.0013 11.4237V11.725C70.345 11.5148 70.7097 11.3393 71.0896 11.2012C71.4991 11.0503 71.9333 10.9741 72.3708 10.9764C72.6839 10.9699 72.9955 11.021 73.2893 11.127C73.5633 11.234 73.8061 11.4054 73.9965 11.626C74.4374 11.4187 74.8991 11.2568 75.3741 11.1428C75.8056 11.0346 76.249 10.9787 76.6944 10.9764C77.0433 10.9738 77.3907 11.0215 77.7254 11.118C78.0396 11.212 78.3263 11.3786 78.5611 11.6036C78.8163 11.8569 79.0081 12.1647 79.1214 12.5027C79.2675 12.9523 79.3358 13.4226 79.3234 13.8942V19.5139C79.3221 19.557 79.3114 19.5994 79.292 19.6381C79.2726 19.6769 79.2449 19.7112 79.2109 19.7386Z" fill="black"/>
<path d="M83.1511 9.38266C83.1493 9.46639 83.1147 9.54626 83.0545 9.6057C82.9942 9.66513 82.9128 9.69957 82.8273 9.70186H82.0007C81.9152 9.69906 81.8339 9.66453 81.7734 9.60526C81.7128 9.546 81.6775 9.46642 81.6747 9.38266V8.11261C81.677 8.02888 81.7122 7.94925 81.7729 7.89024C81.8336 7.83123 81.9152 7.79736 82.0007 7.79565H82.8273C82.9128 7.79682 82.9945 7.83058 83.0549 7.88977C83.1154 7.94896 83.1499 8.02891 83.1511 8.11261V9.38266ZM83.1189 19.5161C83.1177 19.5998 83.0833 19.6797 83.0228 19.7389C82.9623 19.7981 82.8807 19.8319 82.7952 19.8331H82.0168C81.9313 19.8319 81.8496 19.7981 81.7892 19.7389C81.7287 19.6797 81.6942 19.5998 81.693 19.5161V11.4237C81.6924 11.3818 81.7006 11.3401 81.7172 11.3014C81.7338 11.2628 81.7584 11.2279 81.7895 11.1989C81.8186 11.1679 81.8542 11.1432 81.8937 11.1266C81.9333 11.1099 81.976 11.1016 82.0191 11.1023H82.7975C82.8405 11.1016 82.8833 11.1099 82.9228 11.1266C82.9624 11.1432 82.9979 11.1679 83.0271 11.1989C83.0582 11.2279 83.0828 11.2628 83.0994 11.3014C83.116 11.3401 83.1242 11.3818 83.1235 11.4237L83.1189 19.5161Z" fill="black"/>
<path d="M12.9845 10.6864C12.6278 11.0291 12.1479 11.2211 11.6482 11.2211C11.1484 11.2211 10.6686 11.0291 10.3118 10.6864C10.0195 11.0027 9.85612 11.4131 9.8526 11.8396V13.213C10.4111 13.4757 11.0228 13.6121 11.6424 13.6121C12.262 13.6121 12.8737 13.4757 13.4322 13.213V11.8441C13.4343 11.4173 13.2748 11.0049 12.9845 10.6864Z" fill="black"/>
<path d="M11.6436 14.3392C11.7997 14.3392 11.9535 14.3392 12.1028 14.319C11.9489 14.3325 11.7951 14.3392 11.6436 14.3392Z" fill="black"/>
<path d="M11.6481 7.97547C11.3659 7.97468 11.0901 8.05776 10.8572 8.21373C10.6243 8.3697 10.4452 8.59123 10.3437 8.84899C10.2422 9.10675 10.223 9.38861 10.2886 9.65729C10.3542 9.92598 10.5016 10.1688 10.7113 10.3537C10.9116 10.5307 11.16 10.6472 11.4264 10.6891C11.6929 10.7309 11.966 10.6965 12.2129 10.5898C12.4597 10.4831 12.6698 10.3087 12.8177 10.0877C12.9656 9.86676 13.045 9.60861 13.0464 9.34443C13.0464 8.98136 12.8991 8.63316 12.6369 8.37643C12.3746 8.1197 12.019 7.97547 11.6481 7.97547Z" fill="black"/>
<path d="M5.31088 2.47043L8.1879 3.65731V5.17913C8.188 5.19291 8.19203 5.20638 8.19951 5.21805C8.207 5.22971 8.21766 5.2391 8.23029 5.24517C8.24293 5.25124 8.25704 5.25374 8.27104 5.2524C8.28505 5.25106 8.2984 5.24592 8.30959 5.23757C9.26465 4.51393 10.4381 4.1213 11.6458 4.1213C12.8535 4.1213 14.027 4.51393 14.9821 5.23757C14.9933 5.24592 15.0066 5.25106 15.0206 5.2524C15.0346 5.25374 15.0487 5.25124 15.0614 5.24517C15.074 5.2391 15.0847 5.22971 15.0921 5.21805C15.0996 5.20638 15.1037 5.19291 15.1038 5.17913V3.65507L16.8832 2.92001V3.9383C16.8399 3.95746 16.8021 3.98696 16.7734 4.02409C16.7447 4.06122 16.7259 4.10481 16.7189 4.15086C16.7118 4.19691 16.7166 4.24396 16.7329 4.28772C16.7492 4.33148 16.7764 4.37056 16.8121 4.40136L16.4791 5.07573H17.533L17.2001 4.40136C17.2301 4.37494 17.2541 4.34271 17.2707 4.30673C17.2873 4.27075 17.2961 4.23179 17.2965 4.19231C17.2962 4.13873 17.2803 4.08635 17.2506 4.04135C17.2209 3.99634 17.1787 3.96058 17.1289 3.9383V2.81436L17.9808 2.46369C17.9851 2.46135 17.9887 2.45794 17.9912 2.45379C17.9937 2.44964 17.995 2.44491 17.995 2.44009C17.995 2.43527 17.9937 2.43054 17.9912 2.42639C17.9887 2.42224 17.9851 2.41882 17.9808 2.41648L11.6986 0.0045052C11.6648 -0.00898871 11.6269 -0.00898871 11.593 0.0045052L5.31088 2.41648C5.30357 2.41648 5.29656 2.41933 5.2914 2.42439C5.28623 2.42944 5.28333 2.4363 5.28333 2.44346C5.28333 2.45061 5.28623 2.45748 5.2914 2.46253C5.29656 2.46759 5.30357 2.47043 5.31088 2.47043Z" fill="black"/>
<path d="M23.2871 19.7027L23.2067 19.2014C23.0299 18.1134 22.8164 17.0299 22.612 15.9442C22.5133 15.4002 22.3962 14.8607 22.2837 14.3212C22.1712 13.7817 22.0541 13.2378 21.9393 12.7005C21.6959 11.6215 21.4456 10.5448 21.1724 9.47031C20.9129 8.4745 20.6512 7.2629 20.3435 6.27608C20.3435 6.26833 20.3403 6.26089 20.3347 6.25541C20.3291 6.24993 20.3215 6.24686 20.3136 6.24686C20.3057 6.24686 20.2981 6.24993 20.2925 6.25541C20.2869 6.26089 20.2838 6.26833 20.2838 6.27608C20.3366 7.30786 20.4399 8.54869 20.5432 9.57147C20.6603 10.6707 20.8004 11.7676 20.9474 12.8624C21.0208 13.4086 21.1104 13.9548 21.177 14.5011C21.2436 15.0473 21.34 15.5935 21.4364 16.1353C21.5811 16.9782 21.7234 17.8212 21.8773 18.6641C21.6477 18.6641 21.4181 18.6484 21.2022 18.6529C20.7165 18.6555 20.2313 18.684 19.7488 18.7383C19.2666 18.7863 18.7883 18.8545 18.3137 18.9429C17.8384 19.0373 17.3677 19.1497 16.9062 19.289C16.4407 19.4189 15.9849 19.5804 15.5423 19.7723C15.3127 19.869 15.0992 19.9567 14.8856 20.0713C14.6681 20.1729 14.4566 20.2862 14.2519 20.4107C14.0476 20.5389 13.8363 20.6513 13.6434 20.7929C13.4506 20.9345 13.2531 21.0671 13.0694 21.2222C12.9225 21.3526 12.7755 21.4785 12.6332 21.6111C12.6033 21.6381 12.5689 21.6651 12.539 21.6943L12.3393 21.9191C12.3306 21.9274 12.3255 21.9386 12.325 21.9505C12.3245 21.9624 12.3285 21.974 12.3363 21.9831C12.3441 21.9922 12.3552 21.998 12.3672 21.9995C12.3792 22.0009 12.3914 21.9979 12.4013 21.991L12.6492 21.8247L13.2462 21.4762C13.4483 21.3661 13.6618 21.2739 13.8639 21.1705C14.0659 21.0671 14.2864 20.9907 14.4976 20.9008C14.7088 20.8109 14.9293 20.7479 15.1405 20.676C15.3517 20.6041 15.5768 20.5389 15.7949 20.4737C16.013 20.4085 16.2358 20.3568 16.4585 20.3051C16.6812 20.2534 16.8993 20.1994 17.1243 20.159C17.5698 20.0668 18.0221 20.0016 18.4745 19.9522C18.9268 19.9027 19.3814 19.8555 19.8337 19.8353C20.2861 19.8151 20.7522 19.8106 21.1953 19.8173C21.6385 19.824 22.0977 19.8533 22.5408 19.896L23.0506 19.9454C23.0838 19.9504 23.1178 19.9475 23.1497 19.9369C23.1815 19.9262 23.2103 19.9083 23.2335 19.8844C23.2567 19.8606 23.2737 19.8316 23.283 19.8C23.2924 19.7683 23.2938 19.7349 23.2871 19.7027Z" fill="black"/>
<path d="M10.7411 21.7033L10.6424 21.6156C10.5001 21.4852 10.3554 21.3594 10.2085 21.2312C10.0248 21.0761 9.8296 20.9435 9.63672 20.8019C9.44385 20.6603 9.23261 20.5479 9.02826 20.4197C8.82332 20.2957 8.61178 20.1824 8.39453 20.0803C8.181 19.9657 7.95598 19.878 7.73555 19.7813C7.29374 19.5894 6.83877 19.4279 6.37396 19.2981C5.91474 19.1587 5.43945 19.0463 4.96645 18.9519C4.49345 18.8575 4.01127 18.7945 3.52909 18.7473C3.04734 18.6929 2.5629 18.6644 2.07795 18.6619C1.84834 18.6619 1.61873 18.6619 1.38912 18.6731C1.54526 17.8302 1.68762 16.9872 1.83227 16.1443C1.92871 15.6025 2.00678 15.0541 2.08944 14.5101C2.1721 13.9661 2.25935 13.4176 2.31905 12.8714C2.46829 11.7767 2.60835 10.6797 2.72546 9.58047C2.82878 8.55768 2.92981 7.31685 2.98492 6.28508C2.98492 6.27733 2.98177 6.26989 2.97617 6.26441C2.97057 6.25893 2.96298 6.25586 2.95507 6.25586C2.94715 6.25586 2.93956 6.25893 2.93396 6.26441C2.92836 6.26989 2.92522 6.27733 2.92522 6.28508C2.61524 7.2719 2.35578 8.48351 2.09632 9.47932C1.82309 10.5538 1.57052 11.6305 1.32943 12.7095C1.20544 13.2468 1.09982 13.7885 0.985011 14.3302C0.870206 14.872 0.755401 15.4092 0.656668 15.9532C0.452315 17.0389 0.236481 18.1224 0.0619768 19.2104L-0.0206831 19.7117C-0.0253714 19.7427 -0.0227638 19.7745 -0.0130593 19.8044C-0.00335481 19.8344 0.0131923 19.8618 0.0353251 19.8845C0.0574578 19.9073 0.0845935 19.9248 0.114674 19.9357C0.144755 19.9467 0.176988 19.9508 0.208927 19.9477L0.716366 19.8982C1.16181 19.8555 1.60955 19.8218 2.06418 19.8196C2.51881 19.8173 2.98262 19.8196 3.42347 19.8375C3.86432 19.8555 4.34191 19.896 4.78276 19.9544C5.22361 20.0129 5.68743 20.0691 6.13287 20.1612C6.36248 20.2017 6.59209 20.2489 6.80104 20.3074C7.00998 20.3658 7.24648 20.4085 7.46461 20.4759C7.68274 20.5434 7.90546 20.5951 8.1167 20.6783C8.32795 20.7614 8.55296 20.8199 8.76191 20.903C8.97085 20.9862 9.19128 21.0671 9.39563 21.1728C9.59998 21.2784 9.81123 21.3683 10.011 21.4785L10.6103 21.8269L10.856 21.9933C10.8657 22.0016 10.8784 22.0058 10.8913 22.005C10.9043 22.0041 10.9163 21.9983 10.9248 21.9888C10.9334 21.9792 10.9377 21.9668 10.9368 21.9541C10.9359 21.9415 10.93 21.9297 10.9202 21.9213L10.7411 21.7033Z" fill="black"/>
<path d="M18.3872 6.24687C18.3856 6.23804 18.3815 6.22982 18.3754 6.22309C18.3693 6.21636 18.3615 6.21137 18.3528 6.20866C17.5321 5.98109 16.6788 5.88767 15.8271 5.93217C15.8183 5.93321 15.8099 5.93649 15.8028 5.94169C15.7957 5.94688 15.7902 5.95382 15.7867 5.96179C15.7832 5.96976 15.7819 5.97848 15.7829 5.98709C15.784 5.9957 15.7873 6.00389 15.7926 6.01084C16.4092 6.71785 16.8261 7.57044 17.002 8.48398C17.178 9.39751 17.1068 10.3402 16.7955 11.2185C16.4843 12.0967 15.9438 12.88 15.2277 13.4906C14.5116 14.1011 13.6449 14.5177 12.7135 14.6989C12.6548 14.7101 12.602 14.7413 12.5646 14.787C12.5272 14.8327 12.5075 14.8899 12.5092 14.9484L12.6745 18.9159C12.676 18.9526 12.6875 18.9882 12.7079 19.019C12.7283 19.0498 12.7568 19.0747 12.7904 19.091C12.8239 19.1073 12.8614 19.1145 12.8988 19.1118C12.9362 19.109 12.9721 19.0965 13.0028 19.0755C15.2071 17.5402 18.1989 17.2368 20.0771 17.4188C20.0922 17.42 20.1074 17.4178 20.1215 17.4125C20.1356 17.4071 20.1483 17.3988 20.1586 17.388C20.169 17.3772 20.1767 17.3643 20.1813 17.3501C20.1859 17.336 20.1872 17.3211 20.1851 17.3064C19.9968 16.1196 18.4813 6.84031 18.3872 6.24687Z" fill="#5ABCA6"/>
<path d="M10.5712 14.6989C9.63968 14.518 8.77269 14.1016 8.05634 13.4912C7.33999 12.8808 6.79921 12.0975 6.48771 11.2192C6.1762 10.3409 6.1048 9.3981 6.2806 8.48442C6.4564 7.57074 6.87329 6.71798 7.48986 6.01082C7.49599 6.00412 7.50003 5.99585 7.50152 5.98698C7.50301 5.9781 7.50187 5.969 7.49826 5.96073C7.49464 5.95247 7.48868 5.94539 7.48109 5.94032C7.47351 5.93526 7.46459 5.93242 7.45541 5.93215C6.60369 5.88711 5.75023 5.98053 4.9297 6.20863C4.92069 6.21084 4.91257 6.21568 4.90642 6.2225C4.90027 6.22932 4.89638 6.23781 4.89526 6.24685C4.79883 6.84029 3.28799 16.1195 3.09052 17.3064C3.08842 17.3211 3.0897 17.336 3.09427 17.3501C3.09885 17.3642 3.1066 17.3772 3.11695 17.3879C3.12731 17.3987 3.14001 17.4071 3.15411 17.4124C3.16822 17.4178 3.18337 17.42 3.19844 17.4188C5.07436 17.2367 8.06618 17.5402 10.2727 19.0732C10.3031 19.0943 10.3387 19.107 10.3759 19.1099C10.413 19.1128 10.4502 19.1058 10.4836 19.0897C10.5171 19.0736 10.5454 19.0489 10.5657 19.0183C10.5859 18.9877 10.5974 18.9523 10.5988 18.9159L10.7641 14.9484C10.7667 14.8913 10.7489 14.8351 10.7136 14.7896C10.6784 14.744 10.628 14.7119 10.5712 14.6989Z" fill="#5ABCA6"/>
<path d="M15.1703 12.9141C15.925 12.1732 16.4158 11.2141 16.5704 10.1788C16.7249 9.14357 16.5348 8.0871 16.0283 7.16581C15.5217 6.24453 14.7256 5.50739 13.7579 5.06352C12.7901 4.61964 11.7021 4.49262 10.6548 4.70126C9.60757 4.90989 8.65676 5.44308 7.94314 6.22192C7.22951 7.00075 6.791 7.98384 6.69251 9.02566C6.59401 10.0675 6.84077 11.1126 7.39626 12.0065C7.95175 12.9003 8.78645 13.5953 9.7768 13.9886C10.2251 14.1637 10.6968 14.2749 11.1774 14.319H11.2945C11.4093 14.319 11.5241 14.3347 11.6389 14.3347C11.7951 14.3347 11.9489 14.3347 12.0982 14.3145C12.5822 14.2704 13.0571 14.1576 13.508 13.9796C14.1284 13.7351 14.6934 13.373 15.1703 12.9141ZM11.6435 13.6087C11.0261 13.6089 10.4165 13.4737 9.85946 13.213C9.8342 13.1995 9.80665 13.1906 9.78139 13.1793C9.36193 12.9829 8.98047 12.7167 8.654 12.3926C8.06311 11.8133 7.66067 11.0757 7.49742 10.2728C7.33417 9.46986 7.41743 8.63761 7.7367 7.88097C8.05597 7.12433 8.59694 6.47718 9.29141 6.02115C9.98587 5.56512 10.8027 5.32061 11.6389 5.31848C12.5959 5.31462 13.526 5.62878 14.2769 6.2096C15.0278 6.79042 15.5552 7.60352 15.7728 8.51589C15.9904 9.42827 15.8853 10.3859 15.4747 11.2322C15.0641 12.0785 14.3724 12.7634 13.5126 13.1748C13.4873 13.1861 13.4597 13.1951 13.4345 13.2085C12.8757 13.4718 12.2636 13.6085 11.6435 13.6087Z" fill="#5ABCA6"/>
<path d="M12.1051 14.7663C11.801 14.8152 11.4907 14.8152 11.1866 14.7663L11.1109 14.7551L10.9731 19.651C10.9705 19.7583 10.9941 19.8646 11.042 19.9612C11.0973 20.0712 11.1829 20.1638 11.2893 20.2286C11.3956 20.2934 11.5183 20.3278 11.6436 20.3278C11.7688 20.3278 11.8915 20.2934 11.9979 20.2286C12.1042 20.1638 12.1898 20.0712 12.2451 19.9612C12.293 19.8646 12.3166 19.7583 12.314 19.651L12.1785 14.7551L12.1051 14.7663Z" fill="#5ABCA6"/>
</g>
<defs>
<clipPath id="clip0_2_80">
<rect width="121" height="22" fill="white"/>
</clipPath>
</defs>
</svg>
